<?xml version="1.0" standalone="no"?>
<!DOCTYPE svg PUBLIC "-//W3C//DTD SVG 20010904//EN"
 "http://www.w3.org/TR/2001/REC-SVG-20010904/DTD/svg10.dtd">
<svg version="1.0" xmlns="http://www.w3.org/2000/svg"
 width="768.000000pt" height="325.000000pt" viewBox="0 0 768.000000 325.000000"
 preserveAspectRatio="xMidYMid meet">

<g transform="translate(0.000000,325.000000) scale(0.100000,-0.100000)"
fill="#000000" stroke="none">
<path d="M3782 2928 c-5 -7 -21 -62 -35 -123 l-24 -110 -39 -13 c-21 -8 -54
-20 -72 -28 -32 -14 -32 -14 -133 61 -55 41 -104 75 -108 75 -8 0 -177 -147
-205 -178 -18 -21 -17 -23 38 -127 l56 -106 -38 -69 -37 -70 -60 -1 c-33 -1
-87 -4 -120 -8 l-60 -6 -12 -55 c-7 -30 -14 -97 -15 -149 l-3 -94 107 -36 107
-35 16 -74 17 -73 -76 -79 c-42 -44 -76 -87 -76 -95 0 -8 25 -55 56 -105 38
-62 62 -90 75 -90 10 0 63 17 116 39 54 21 112 42 129 45 71 16 97 -56 92
-263 l-2 -123 93 -34 c51 -19 104 -34 116 -34 18 0 37 21 86 95 l63 95 73 0
73 0 66 -100 c39 -58 74 -100 83 -100 9 0 59 18 111 39 l95 39 -2 48 c-1 26
-9 89 -19 139 -19 103 -14 141 21 157 27 12 83 -5 224 -69 40 -18 81 -33 90
-33 9 0 47 47 89 112 86 128 86 115 -14 222 -35 38 -64 74 -63 80 0 6 10 40
22 76 l22 64 105 37 105 37 3 55 c3 49 -21 233 -31 243 -2 3 -55 8 -116 13
-61 4 -115 12 -120 17 -4 5 -23 36 -41 70 l-33 60 57 95 c31 51 56 101 56 109
0 18 -193 210 -211 210 -12 0 -63 -37 -171 -122 l-34 -28 -68 29 c-37 15 -71
32 -75 37 -5 5 -18 56 -29 114 -14 70 -27 109 -38 117 -25 18 -267 18 -282 1z
m219 -558 c241 -46 396 -294 334 -534 -46 -176 -175 -299 -342 -326 -295 -48
-551 208 -504 505 37 242 267 401 512 355z"/>
<path d="M990 2639 l0 -89 -59 0 c-59 0 -71 -7 -71 -45 0 -22 30 -45 58 -45
l27 0 -25 -219 c-14 -121 -27 -222 -30 -224 -3 -2 -24 -7 -47 -11 l-43 -6 0
35 c0 24 -5 35 -15 35 -13 0 -15 21 -15 128 0 125 -1 130 -28 171 -15 23 -39
49 -51 58 l-24 16 7 -69 c3 -38 9 -121 12 -185 7 -113 6 -116 -15 -122 -17 -4
-21 -13 -21 -44 l0 -39 -162 -23 c-205 -30 -289 -47 -305 -64 -16 -16 -26 -76
-52 -317 -12 -102 -26 -225 -32 -275 -12 -99 -4 -137 33 -166 l21 -17 -29 -15
c-54 -28 -104 -103 -104 -156 0 -27 47 -56 66 -41 7 7 11 16 8 21 -9 15 45 99
69 109 12 5 85 25 162 45 77 20 248 71 380 115 297 98 425 128 775 180 343 51
478 77 509 97 24 15 24 16 17 149 -3 74 -5 134 -3 134 3 0 40 -16 83 -36 44
-20 99 -45 124 -54 l45 -18 5 -281 c4 -233 3 -282 -9 -286 -19 -7 -41 13 -34
32 8 20 -26 47 -41 34 -7 -6 -20 -3 -35 8 -20 15 -22 21 -12 39 9 18 8 23 -10
32 -11 7 -27 9 -36 6 -24 -10 -56 13 -50 35 7 25 -39 51 -52 30 -12 -19 -50
-4 -61 25 -7 17 -17 24 -35 24 -14 0 -25 -4 -25 -10 0 -15 -31 -12 -44 5 -13
18 -56 9 -56 -11 0 -8 -10 -14 -25 -14 -14 0 -25 5 -25 10 0 6 -11 10 -25 10
-18 0 -28 -7 -35 -25 -9 -24 -50 -37 -50 -15 0 6 -13 10 -30 10 -19 0 -30 -5
-30 -14 0 -17 -53 -32 -58 -17 -6 19 -51 12 -62 -9 -12 -23 -32 -25 -59 -8
-20 12 -56 4 -46 -12 3 -5 -6 -12 -21 -16 -17 -4 -29 -2 -34 6 -10 16 -60 5
-60 -14 0 -8 -11 -16 -25 -18 -14 -3 -25 -1 -25 3 0 5 -13 9 -29 9 -20 0 -30
-6 -34 -20 -5 -21 -41 -28 -52 -10 -3 6 -17 10 -31 10 -17 0 -24 -5 -24 -20 0
-27 -40 -44 -56 -24 -17 21 -54 18 -54 -5 0 -24 -41 -36 -56 -16 -15 19 -54 8
-54 -16 0 -24 -38 -26 -54 -3 -13 18 -46 9 -46 -12 0 -22 -42 -35 -56 -18 -17
22 -54 18 -54 -6 0 -27 -46 -39 -63 -16 -15 20 -57 10 -57 -14 0 -19 -46 -34
-56 -19 -10 17 -46 9 -51 -11 -7 -25 -52 -38 -63 -19 -13 20 -63 -5 -56 -29 7
-22 -31 -49 -47 -33 -17 17 -61 -28 -46 -46 16 -19 -15 -65 -37 -56 -11 4 -22
-1 -30 -12 -18 -24 -18 -39 0 -32 20 8 36 -13 36 -45 0 -20 -5 -28 -18 -28
-26 0 -30 -6 -24 -35 3 -16 11 -25 23 -25 26 0 38 -49 16 -62 -25 -13 -1 -61
27 -54 27 6 63 -38 47 -58 -16 -20 23 -53 43 -37 22 18 68 3 64 -21 -2 -12 6
-26 20 -36 22 -14 23 -14 29 7 8 31 57 26 61 -7 5 -30 62 -33 62 -2 0 28 50
28 57 0 8 -29 63 -29 63 0 0 15 7 20 25 20 18 0 25 -5 25 -20 0 -29 55 -29 63
0 7 27 47 27 54 0 7 -27 49 -27 56 0 7 27 47 27 54 0 7 -28 59 -28 66 0 7 27
47 27 54 0 7 -27 53 -27 60 0 3 13 14 20 29 20 17 0 24 -6 24 -20 0 -29 60
-29 67 0 7 27 49 27 56 0 7 -29 67 -29 67 0 0 15 7 20 25 20 18 0 25 -5 25
-20 0 -29 55 -29 63 0 3 12 14 20 27 20 13 0 24 -8 27 -20 7 -28 59 -28 66 0
7 27 47 27 54 0 4 -14 14 -20 33 -20 19 0 29 6 33 20 7 27 47 27 54 0 7 -28
59 -28 66 0 7 26 44 26 52 0 9 -28 65 -28 65 0 0 28 46 28 53 0 7 -28 57 -28
64 0 7 27 49 27 58 0 9 -27 51 -27 58 0 7 28 57 28 57 0 0 -29 55 -29 63 0 7
27 47 27 54 0 4 -14 14 -20 34 -20 24 0 28 4 26 22 -1 17 4 24 22 26 15 2 28
-3 33 -12 12 -22 52 -2 44 21 -4 9 1 24 10 34 13 15 20 16 31 7 11 -9 19 -7
35 10 18 18 19 23 8 37 -19 23 3 69 29 60 25 -8 40 44 17 57 -9 5 -16 15 -16
23 0 15 -5 16 307 -19 l193 -22 54 -66 c89 -107 107 -118 238 -134 135 -17
338 -19 338 -4 0 6 -22 38 -50 70 -65 79 -95 132 -125 220 -43 127 -58 230
-56 405 1 88 -2 184 -5 213 -7 61 1 61 -139 0 -140 -60 -138 -59 -148 -103 -5
-22 -13 -57 -18 -77 l-10 -38 -64 0 c-39 0 -94 -9 -142 -24 -180 -55 -226 -67
-233 -59 -4 4 -15 31 -24 60 -10 29 -27 67 -40 85 -29 43 -165 328 -211 443
-40 101 -53 115 -128 144 -29 11 -101 42 -162 68 l-110 49 -7 42 c-4 24 -19
139 -33 256 -13 117 -28 233 -31 259 l-7 46 54 3 54 3 0 35 0 35 -457 3 -458
2 0 69 c0 78 -8 90 -70 101 l-40 7 0 -88z m225 -251 c-7 -103 -23 -407 -30
-573 -3 -77 -8 -186 -11 -242 l-6 -103 -83 0 c-46 0 -85 3 -87 8 -2 4 -2 99 2
212 4 181 3 211 -13 255 -10 28 -15 63 -13 80 3 17 8 82 12 145 3 63 10 116
14 118 4 2 5 24 2 49 -4 35 -2 44 7 38 10 -5 11 4 6 39 l-7 46 106 0 107 0 -6
-72z m620 47 c0 -19 -8 -20 -232 -23 -229 -2 -233 -3 -245 -25 -16 -28 -25
-524 -10 -539 5 -5 108 -14 228 -19 259 -10 320 -16 340 -36 11 -11 14 -44 14
-144 0 -71 -3 -129 -7 -129 -5 0 -71 -11 -147 -25 -77 -14 -144 -25 -148 -25
-4 0 -8 50 -8 110 l0 110 106 0 c58 0 114 5 125 10 23 13 24 33 3 54 -13 14
-50 16 -250 16 -243 0 -274 -5 -274 -40 0 -31 32 -40 139 -40 l101 0 0 -109
c0 -90 -3 -110 -16 -115 -9 -3 -81 -6 -161 -6 l-146 0 6 153 c4 83 11 276 17
427 6 151 13 308 16 348 l6 72 271 -2 c264 -3 272 -4 272 -23z m-9 -93 c6 -4
16 -68 23 -142 7 -74 19 -173 26 -219 8 -46 15 -89 15 -95 0 -9 -18 -10 -67
-4 -55 6 -345 19 -414 18 -15 0 -16 11 -13 83 2 45 7 144 10 219 l6 137 127 4
c69 1 160 4 201 5 41 1 80 -2 86 -6z m-908 -698 c2 -225 -1 -294 -10 -302 -28
-22 -495 -172 -538 -172 -6 0 -10 41 -10 100 l0 100 238 0 c172 0 241 3 250
12 8 8 12 66 12 195 0 170 -1 183 -19 193 -12 6 -108 10 -244 10 -123 0 -258
3 -299 6 l-75 7 6 31 c6 28 12 32 60 42 29 7 105 17 169 24 64 6 176 19 247
30 72 10 148 18 170 17 l40 -2 3 -291z m-590 -186 l-3 -283 -41 2 c-22 1 -57
12 -78 24 l-39 23 6 75 c13 157 38 407 43 424 4 13 17 17 60 17 l54 0 -2 -282z
m492 117 l0 -165 -230 0 -230 0 0 165 0 165 230 0 230 0 0 -165z m1637 -295
c26 -56 35 -87 34 -122 -1 -26 5 -64 13 -83 8 -19 13 -35 11 -35 -3 0 -45 25
-95 56 l-90 56 0 202 0 201 46 -100 c25 -55 61 -134 81 -175z m908 -197 c0
-204 1 -210 33 -327 35 -124 55 -172 105 -245 l30 -44 -109 6 c-136 7 -178 21
-231 73 -48 49 -73 117 -73 204 0 51 74 457 85 469 6 5 146 69 155 70 3 1 5
-92 5 -206z m-1445 127 c56 -29 95 -98 94 -170 0 -79 -30 -132 -97 -170 -46
-27 -59 -31 -114 -28 -52 3 -69 9 -100 34 -77 63 -103 164 -64 249 33 73 88
105 179 105 43 0 75 -6 102 -20z m-355 -57 c-33 -88 -21 -197 31 -274 l32 -48
-227 0 c-215 1 -439 -10 -671 -31 -58 -6 -108 -10 -112 -10 -3 0 -9 14 -13 30
-4 17 -24 53 -46 80 -45 57 -56 49 97 72 l92 13 5 -37 c11 -82 98 -143 169
-119 84 28 131 127 94 199 -9 17 -16 33 -16 35 0 2 53 14 118 26 117 22 429
78 446 80 4 1 5 -7 1 -16z m955 -208 c327 -191 333 -195 328 -227 -3 -21 -7
-23 -58 -21 -147 4 -230 15 -230 29 0 8 -10 14 -24 14 -27 0 -42 35 -25 56 12
14 3 54 -11 54 -5 0 -12 -5 -16 -11 -4 -8 -13 -4 -25 12 -11 15 -14 28 -8 35
14 17 -27 50 -44 36 -11 -9 -19 -6 -36 12 -13 14 -20 30 -16 36 9 14 -15 42
-31 36 -17 -6 -39 21 -39 50 -1 22 0 22 30 7 16 -9 109 -62 205 -118z m-1580
73 c48 -52 0 -150 -64 -134 -65 16 -87 86 -41 131 31 32 77 33 105 3z m1248
-144 c-88 -22 -153 -77 -180 -151 l-12 -33 -683 0 -683 0 0 30 c0 17 3 30 8
30 4 0 93 7 197 15 105 8 336 18 515 22 287 5 333 4 393 -11 62 -16 72 -16
128 -2 33 9 80 30 105 47 48 32 100 111 110 167 l7 34 68 -68 69 -69 -42 -11z
m841 106 c36 0 42 -3 37 -17 -2 -10 -7 -38 -11 -63 -14 -100 -15 -102 -43 -97
-14 3 -43 -1 -65 -9 l-40 -14 -103 67 c-57 37 -104 70 -104 73 0 3 55 26 123
51 119 44 123 45 143 27 13 -11 36 -18 63 -18z m-2566 -115 c41 -26 81 -116
74 -166 -11 -87 -91 -158 -176 -159 -44 0 -115 34 -141 67 -69 88 -32 229 70
272 36 16 142 7 173 -14z m1792 -84 c-3 -3 -22 -4 -42 -3 -32 3 -35 1 -23 -13
11 -13 10 -14 -4 -9 -10 4 -16 1 -16 -7 0 -7 -3 -10 -6 -7 -3 4 -1 16 5 27 9
16 20 20 51 19 22 -1 38 -4 35 -7z m-103 -8 c-6 -2 -9 -10 -6 -15 4 -6 2 -8
-3 -5 -19 12 -33 -16 -19 -35 7 -10 16 -15 19 -11 4 3 2 12 -4 20 -9 9 -8 13
0 13 6 0 11 -5 11 -11 0 -5 4 -8 8 -5 5 3 9 -1 9 -9 0 -8 -4 -12 -8 -9 -4 2
-11 -1 -15 -7 -5 -8 -13 -4 -26 12 -14 17 -18 19 -14 6 3 -10 2 -16 -3 -12 -5
3 -12 -1 -14 -7 -4 -10 -6 -10 -6 -1 -1 16 58 83 73 82 7 0 7 -2 -2 -6z m170
-20 c14 -16 31 -38 37 -50 13 -25 14 -82 2 -101 -5 -8 -6 8 -3 39 3 35 1 50
-6 45 -5 -3 -18 -3 -27 0 -13 5 -14 8 -3 15 10 7 10 9 -3 9 -27 0 -28 -10 -6
-48 13 -21 16 -32 7 -27 -10 6 -12 4 -7 -9 4 -10 3 -15 -3 -11 -11 7 -32 -29
-22 -40 4 -5 2 -5 -5 -1 -7 4 -18 -4 -27 -21 -8 -15 -15 -23 -16 -17 0 6 -20
21 -45 34 -25 13 -45 30 -45 38 0 9 6 7 18 -9 34 -41 103 -24 134 35 8 14 5
25 -12 49 -13 16 -19 27 -14 24 5 -3 18 1 29 9 10 8 16 14 12 14 -15 0 -23 2
-39 11 -11 6 -18 6 -18 0 0 -5 5 -11 12 -13 7 -3 5 -7 -6 -11 -9 -4 -15 -3
-11 2 3 5 0 13 -6 17 -19 11 13 24 33 13 10 -5 18 -7 18 -4 0 12 -5 20 -12 18
-5 -2 -8 2 -8 7 0 17 15 11 42 -17z m-92 -3 c0 -5 -5 -10 -11 -10 -5 0 -7 5
-4 10 3 6 8 10 11 10 2 0 4 -4 4 -10z m3 -27 c-7 -2 -19 -2 -25 0 -7 3 -2 5
12 5 14 0 19 -2 13 -5z m-156 -85 c-3 -7 -5 -2 -5 12 0 14 2 19 5 13 2 -7 2
-19 0 -25z m20 10 c-3 -8 -6 -5 -6 6 -1 11 2 17 5 13 3 -3 4 -12 1 -19z
m-1279 -41 c32 -29 30 -79 -4 -106 -35 -28 -69 -26 -99 4 -44 43 -22 119 35
127 30 5 38 2 68 -25z m254 6 c22 -20 21 -87 -1 -107 -42 -37 -115 -20 -127
29 -20 80 67 133 128 78z m234 14 c70 -15 49 -147 -22 -147 -39 0 -76 40 -76
83 0 45 34 82 67 72 11 -3 25 -7 31 -8z m253 1 c11 -11 12 -10 6 0 -6 11 -3
12 14 3 54 -29 52 -111 -3 -138 -29 -13 -37 -14 -62 -2 -29 14 -61 62 -45 67
5 2 7 11 4 21 -3 12 5 26 23 40 31 24 45 26 63 9z m301 -13 c40 -36 18 -116
-35 -129 -30 -8 -69 10 -59 26 5 7 2 8 -6 3 -16 -10 -30 12 -30 48 0 40 40 78
80 73 17 -2 39 -11 50 -21z m256 -30 c-2 -26 24 -54 60 -65 26 -7 27 -8 5 -9
-15 -1 -38 13 -62 38 -43 42 -49 61 -20 58 12 -1 18 -8 17 -22z m214 5 c-13
-9 -7 -14 13 -11 12 2 8 -6 -10 -20 -10 -7 -15 -9 -10 -4 4 4 0 17 -10 27 -15
17 -15 18 8 18 19 0 21 -2 9 -10z m-125 -40 c3 -6 -1 -7 -9 -4 -18 7 -21 14
-7 14 6 0 13 -4 16 -10z m79 1 c3 -5 -1 -11 -9 -14 -9 -4 -12 -1 -8 9 6 16 10
17 17 5z m21 -20 c-3 -6 -11 -11 -16 -11 -5 0 -4 6 3 14 14 16 24 13 13 -3z"/>
<path d="M482 1678 c-14 -14 -17 -195 -3 -217 8 -12 12 -13 26 -1 13 11 15 31
13 118 -3 104 -11 125 -36 100z"/>
<path d="M1737 1179 c-98 -52 -111 -183 -27 -264 26 -24 40 -30 93 -33 72 -4
114 16 147 70 27 44 27 132 0 172 -46 71 -139 94 -213 55z m141 -59 c9 0 42
-70 42 -91 0 -36 -33 -75 -75 -89 -49 -16 -104 12 -124 63 -28 75 44 148 124
126 16 -5 31 -9 33 -9z"/>
<path d="M1775 1070 c-41 -46 29 -116 75 -75 26 24 26 60 -2 79 -30 21 -51 20
-73 -4z"/>
<path d="M1325 1058 c-51 -29 -61 -93 -21 -133 50 -50 110 -42 146 17 26 44
25 74 -5 103 -27 28 -84 33 -120 13z"/>
<path d="M856 995 c-19 -19 -20 -29 -6 -56 16 -28 68 -26 79 4 18 46 -38 86
-73 52z"/>
<path d="M299 771 c-33 -33 -35 -50 -14 -90 41 -80 155 -54 155 35 0 80 -83
112 -141 55z"/>
<path d="M2324 729 c9 -14 13 -29 9 -32 -3 -4 -1 -7 5 -7 18 0 15 15 -9 41
l-20 24 15 -26z"/>
<path d="M2235 560 c3 -5 8 -10 11 -10 2 0 4 5 4 10 0 6 -5 10 -11 10 -5 0 -7
-4 -4 -10z"/>
<path d="M742 588 c-16 -16 -15 -58 1 -62 22 -7 72 -15 61 -10 -6 2 -9 16 -6
29 8 42 -29 70 -56 43z"/>
<path d="M992 588 c-28 -28 -1 -75 37 -63 25 8 34 31 21 56 -12 21 -40 25 -58
7z"/>
<path d="M1252 602 c1 -4 -3 -15 -7 -26 -11 -26 7 -51 36 -51 21 0 24 5 24 34
0 29 -4 36 -27 42 -15 4 -27 4 -26 1z"/>
<path d="M1512 583 c-15 -28 3 -65 29 -61 30 4 47 33 33 56 -15 24 -51 27 -62
5z"/>
<path d="M1786 591 c-20 -22 -21 -45 -1 -61 24 -20 55 -3 55 30 0 39 -31 57
-54 31z"/>
<path d="M2096 587 c3 -10 9 -15 12 -12 3 3 0 11 -7 18 -10 9 -11 8 -5 -6z"/>
<path d="M6530 2565 c0 -13 -48 -15 -374 -15 l-374 0 -6 -24 c-11 -46 1 -56
65 -56 l60 0 -7 -52 c-3 -29 -21 -163 -40 -298 -19 -135 -34 -248 -34 -252 0
-5 -5 -8 -11 -8 -6 0 -92 -30 -191 -67 l-181 -68 -20 -45 c-150 -347 -203
-458 -232 -485 -17 -16 -54 -70 -81 -118 -40 -73 -52 -88 -69 -84 -78 18 -329
88 -345 97 -11 6 -29 27 -39 48 -35 68 -73 99 -183 150 -59 28 -108 48 -111
46 -2 -2 5 -55 15 -116 35 -211 22 -369 -41 -538 -22 -60 -81 -149 -149 -229
-36 -42 -41 -52 -28 -57 9 -3 94 -4 189 -2 199 6 290 27 326 76 12 15 25 32
30 38 5 6 58 17 117 23 119 14 171 29 342 98 62 25 119 42 127 39 20 -7 20
-56 0 -56 -16 0 -20 -27 -6 -49 5 -8 16 -11 25 -8 23 9 44 -36 27 -56 -9 -11
-7 -20 8 -38 16 -20 21 -21 35 -10 20 16 46 -1 46 -30 0 -25 38 -46 46 -24 4
8 18 15 34 15 22 0 29 -5 32 -22 4 -32 58 -39 58 -9 0 17 6 21 30 21 23 0 30
-4 30 -20 0 -15 7 -20 26 -20 17 0 28 6 31 20 7 27 49 27 56 0 7 -27 47 -27
47 0 0 16 7 20 30 20 23 0 30 -4 30 -20 0 -28 46 -28 53 0 7 28 57 28 57 0 0
-28 50 -28 57 0 7 27 53 27 60 0 7 -27 53 -27 60 0 7 27 49 27 56 0 7 -27 53
-27 60 0 6 24 57 29 57 5 0 -10 10 -15 30 -15 20 0 30 5 30 15 0 10 10 15 30
15 20 0 30 -5 30 -15 0 -9 9 -15 25 -15 16 0 25 6 25 15 0 10 10 15 30 15 20
0 30 -5 30 -15 0 -20 49 -20 56 0 8 20 54 20 54 0 0 -10 10 -15 30 -15 19 0
30 5 30 14 0 7 12 16 26 19 20 3 28 0 31 -14 7 -26 59 -26 65 -1 7 24 52 22
56 -1 5 -25 58 -23 65 3 7 27 47 27 54 0 7 -28 59 -28 66 0 7 27 47 27 47 0 0
-16 7 -20 30 -20 23 0 30 4 30 20 0 26 20 26 27 0 7 -27 43 -27 43 0 0 28 46
28 55 0 9 -27 55 -28 55 -1 0 27 41 36 47 10 6 -22 8 -23 34 -8 13 7 18 16 14
28 -4 12 2 24 18 34 22 14 26 14 40 -1 15 -14 18 -14 37 3 18 16 19 20 5 35
-13 14 -13 19 1 39 10 14 23 21 34 18 12 -3 22 4 29 20 10 21 9 27 -5 38 -23
17 -11 65 16 65 16 0 20 7 20 30 0 23 -4 30 -20 30 -31 0 -39 50 -12 68 30 20
12 55 -23 46 -27 -7 -50 24 -41 54 9 27 -18 59 -36 45 -10 -9 -19 -7 -37 6
-16 12 -20 21 -12 25 17 11 13 22 -14 34 -21 10 -27 9 -31 -2 -8 -20 -60 -1
-67 25 -5 20 -43 27 -49 8 -5 -15 -58 7 -58 25 0 13 -20 26 -41 26 -5 0 -9 -7
-9 -15 0 -8 -6 -15 -14 -15 -27 0 -46 12 -46 30 0 24 -41 34 -57 14 -15 -20
-49 -10 -56 16 -6 22 -43 28 -49 8 -6 -16 -58 -1 -58 17 0 18 -52 33 -58 17
-5 -17 -42 -15 -48 3 -9 24 -44 39 -57 26 -16 -16 -57 -14 -57 4 0 18 -52 33
-58 17 -6 -19 -40 -14 -52 8 -11 20 -60 29 -60 10 0 -18 -39 -10 -50 10 -11
20 -60 29 -60 10 0 -18 -39 -10 -50 10 -11 20 -60 29 -60 10 0 -18 -40 -11
-57 10 -18 21 -53 27 -53 10 0 -5 -11 -10 -25 -10 -18 0 -25 5 -25 20 0 14 -7
20 -24 20 -13 0 -26 -5 -28 -11 -5 -16 -48 -1 -48 17 0 8 -10 14 -25 14 -14 0
-25 -4 -25 -10 0 -5 -11 -10 -25 -10 -16 0 -25 6 -25 15 0 9 -9 15 -25 15 -18
0 -25 -5 -25 -20 0 -24 -48 -40 -60 -19 -13 19 -60 -5 -60 -30 0 -24 -32 -44
-54 -35 -24 9 -48 -16 -42 -41 7 -27 -24 -58 -48 -49 -23 9 -60 -25 -46 -41
14 -17 -13 -39 -38 -31 -22 7 -48 -17 -37 -34 11 -17 -25 -51 -47 -44 -26 8
-50 -14 -42 -38 7 -25 -21 -57 -45 -51 -20 5 -46 -21 -38 -40 8 -21 -19 -50
-41 -43 -25 8 -38 -20 -15 -33 14 -8 15 -13 3 -40 -9 -22 -18 -30 -28 -26 -8
3 -20 -2 -26 -10 -13 -18 -205 -99 -279 -118 l-52 -13 -20 42 -21 42 130 63
c71 35 164 86 205 113 92 59 210 176 233 231 12 30 20 108 32 309 11 195 19
272 28 277 11 7 303 109 312 109 2 0 9 -75 15 -167 9 -113 17 -173 26 -182 10
-10 62 -16 197 -22 185 -8 482 -38 638 -64 79 -13 226 -62 345 -115 120 -54
226 -95 311 -120 119 -37 147 -52 216 -118 43 -40 57 -60 52 -74 -7 -23 4 -23
36 2 l25 19 -19 36 c-11 20 -46 60 -77 89 -55 51 -56 54 -38 69 15 13 19 30
19 73 0 46 -32 335 -66 601 -9 71 -21 78 -199 112 -88 17 -203 37 -255 46
-157 26 -147 22 -153 63 -4 20 -13 109 -22 197 -8 88 -18 179 -21 203 l-6 42
41 0 c45 0 64 21 54 58 -5 21 -10 22 -148 22 -118 0 -144 3 -149 15 -4 11 -21
15 -61 15 -42 0 -55 -3 -55 -15z m-93 -108 c7 -4 13 -162 17 -464 4 -252 10
-468 13 -480 3 -15 -1 -23 -14 -26 -10 -3 -133 -7 -273 -9 l-255 -3 0 152 c0
131 2 155 17 170 15 14 49 18 220 25 111 4 205 11 209 15 4 5 10 128 14 274
l7 266 -27 21 c-26 21 -39 22 -202 22 -161 0 -174 1 -171 18 3 15 21 18 143
23 162 7 287 5 302 -4z m362 -196 c12 -108 24 -217 27 -242 5 -45 4 -47 -39
-83 -26 -21 -55 -36 -71 -36 l-26 0 0 265 0 265 -46 0 c-32 0 -43 3 -38 12 4
6 3 8 -4 5 -5 -4 -8 -17 -4 -29 3 -12 1 -19 -4 -15 -6 4 -8 -21 -6 -66 3 -40
7 -154 9 -254 l5 -183 -31 0 c-29 0 -31 2 -30 38 0 20 -3 146 -7 280 l-7 243
125 -2 125 -1 22 -197z m-479 -134 l0 -224 -206 -7 c-114 -3 -208 -5 -210 -4
-8 8 20 157 29 151 5 -3 7 6 3 24 -6 24 10 156 30 256 l6 27 174 0 174 0 0
-223z m690 -223 c420 -79 420 -78 420 -131 l0 -23 -207 -2 c-115 -2 -235 -3
-268 -3 -54 -1 -60 -3 -63 -23 -3 -21 -2 -22 175 -24 l178 -3 2 -30 c1 -16 -1
-74 -4 -127 l-6 -98 -183 0 c-177 0 -184 -1 -184 -20 0 -19 7 -20 108 -20 60
0 143 -3 185 -6 l77 -7 0 -85 c0 -63 -3 -83 -12 -79 -154 63 -359 150 -378
160 l-25 13 -2 219 c-1 121 0 230 3 242 6 23 58 63 84 63 8 0 53 -7 100 -16z
m-260 -244 l0 -180 -105 0 -105 0 0 180 0 180 105 0 105 0 0 -180z m694 13
c11 -60 56 -440 56 -479 0 -6 -145 -4 -179 2 l-31 7 0 248 0 249 74 0 c73 0
74 0 80 -27z m-2039 -380 l-7 -167 -67 -82 c-36 -46 -71 -83 -77 -83 -5 -1
-18 5 -27 12 -16 11 -15 17 18 77 23 43 35 79 35 105 0 47 108 305 127 305 3
0 2 -75 -2 -167z m-923 -75 c29 -17 63 -40 74 -50 55 -49 124 -288 124 -429 0
-148 -50 -236 -157 -274 -46 -17 -263 -34 -263 -22 0 4 23 40 50 80 28 41 62
102 76 137 60 147 79 349 49 507 -8 43 -15 79 -15 81 0 6 14 0 62 -30z m1583
-7 c51 -24 81 -56 100 -110 23 -66 19 -111 -14 -162 -61 -97 -189 -114 -277
-37 -47 42 -64 77 -64 138 0 139 132 228 255 171z m343 -81 c165 -29 482 -96
490 -105 2 -2 -3 -14 -12 -27 -20 -29 -21 -100 0 -139 17 -34 66 -59 116 -59
65 0 138 70 138 133 0 28 8 31 47 21 21 -6 20 -9 -22 -60 -42 -52 -75 -130
-75 -181 l0 -23 -632 0 -633 0 -18 45 c-31 73 -125 145 -192 145 -24 0 -20 6
47 73 l73 72 10 -40 c32 -122 158 -207 285 -192 154 18 248 175 195 326 -8 25
-10 41 -4 41 6 0 90 -14 187 -30z m633 -127 c74 -44 48 -147 -36 -147 -60 0
-98 58 -75 114 19 47 64 60 111 33z m-2033 -109 c2 -2 -11 -31 -30 -66 l-33
-63 -93 -23 c-52 -13 -96 -22 -98 -19 -4 4 -34 218 -34 242 0 7 53 -3 143 -29
78 -22 144 -41 145 -42z m2446 -44 c40 -24 76 -95 76 -149 0 -139 -172 -220
-276 -129 -46 41 -64 77 -64 133 0 103 86 181 189 170 24 -3 58 -14 75 -25z
m-1887 -66 c-3 -3 -12 -4 -19 -1 -8 3 -5 6 6 6 11 1 17 -2 13 -5z m101 -13
c54 -29 84 -147 47 -185 -9 -8 -15 -19 -15 -23 1 -4 -4 -9 -11 -12 -7 -2 -9 1
-4 9 4 7 2 16 -6 21 -11 7 -11 9 -1 9 7 0 10 4 7 10 -4 6 -21 0 -42 -15 -24
-16 -45 -22 -59 -19 -24 6 -64 -11 -64 -27 0 -6 5 -7 10 -4 6 3 10 1 10 -5 0
-7 8 -9 23 -5 16 6 19 4 11 -4 -18 -19 -61 -2 -94 35 -35 40 -39 58 -10 49 18
-6 19 -4 10 21 -6 15 -9 29 -6 31 2 3 7 -6 11 -18 9 -28 25 -45 45 -47 8 -1
31 -5 52 -8 29 -5 40 -2 58 16 28 28 24 77 -10 101 -32 22 -75 36 -66 20 4 -6
5 -11 2 -11 -3 0 -7 4 -11 9 -3 6 10 17 30 27 19 9 32 20 29 26 -3 5 -12 4
-20 -3 -12 -10 -13 -9 -8 4 7 19 46 17 82 -2z m-157 -15 c-14 -15 -19 -26 -12
-31 6 -3 11 -14 11 -23 -1 -13 -4 -11 -14 7 -8 15 -16 20 -20 12 -4 -6 -2 -11
3 -11 6 0 11 -7 11 -15 0 -17 -25 -20 -35 -5 -4 6 1 7 12 3 15 -6 16 -4 6 9
-11 12 -8 20 17 47 17 17 33 31 37 31 3 0 -4 -11 -16 -24z m26 -67 c-6 -10
-13 -16 -16 -13 -3 2 1 10 7 16 9 9 8 17 -6 32 -17 21 -17 21 5 2 18 -15 20
-21 10 -37z m-22 -28 c3 -5 1 -12 -5 -16 -5 -3 -10 1 -10 9 0 18 6 21 15 7z
m479 -48 c22 -21 26 -33 21 -57 -8 -36 -47 -76 -76 -76 -13 0 -18 4 -13 12 4
7 3 8 -5 4 -16 -10 -43 13 -37 31 3 8 1 11 -4 8 -22 -14 -9 57 15 80 31 32 66
32 99 -2z m269 -4 c32 -39 21 -91 -25 -115 -31 -16 -62 -12 -89 13 -24 21 -18
92 11 115 28 22 78 16 103 -13z m253 6 c64 -64 -22 -172 -94 -118 -40 30 -43
93 -6 122 36 28 69 27 100 -4z m251 15 c11 -2 31 -62 26 -81 -8 -33 -34 -61
-50 -54 -8 2 -11 0 -8 -5 13 -21 -37 -9 -60 15 -27 26 -32 63 -14 98 20 37 32
40 106 27z m270 -14 c25 -21 26 -25 13 -42 -8 -10 -10 -15 -5 -12 19 11 13
-41 -7 -58 -25 -23 -82 -23 -108 1 -23 20 -26 54 -7 74 10 11 10 13 0 7 -24
-13 -13 12 13 33 35 27 67 26 101 -3z m-1364 -66 c3 -11 1 -18 -4 -14 -5 3 -9
12 -9 20 0 9 -5 12 -12 8 -7 -4 -8 -3 -4 5 10 15 22 7 29 -19z m-63 -15 c8 -9
21 -13 34 -10 17 5 18 4 6 -4 -8 -6 -26 -11 -40 -11 -18 0 -21 3 -11 9 11 7
10 11 -5 20 -11 6 -14 11 -8 11 6 0 17 -7 24 -15z"/>
<path d="M6032 1761 c-8 -4 -12 -19 -10 -32 l3 -24 169 0 c152 0 170 2 180 18
9 15 7 21 -8 33 -15 11 -55 14 -170 14 -83 0 -157 -4 -164 -9z"/>
<path d="M6583 2090 c0 -25 2 -35 4 -22 2 12 2 32 0 45 -2 12 -4 2 -4 -23z"/>
<path d="M5909 1167 c-125 -87 -66 -282 86 -282 114 0 186 111 141 219 -33 78
-155 112 -227 63z m164 -68 c10 -13 17 -38 17 -64 0 -36 -5 -48 -31 -69 -55
-46 -138 -26 -159 39 -10 30 -9 41 7 73 31 63 121 74 166 21z"/>
<path d="M5969 1086 c-30 -14 -38 -66 -14 -90 48 -48 125 23 83 76 -19 23 -42
28 -69 14z"/>
<path d="M6505 1048 c-51 -30 -60 -84 -20 -123 50 -51 135 -15 135 58 0 20 -7
41 -18 50 -25 22 -72 30 -97 15z"/>
<path d="M6960 959 c-17 -31 12 -71 48 -67 33 4 53 48 32 72 -19 23 -67 20
-80 -5z"/>
<path d="M7305 765 c-44 -43 -30 -114 25 -134 37 -12 72 -1 94 31 24 34 19 66
-13 99 -36 36 -73 37 -106 4z"/>
<path d="M5625 761 c2 -13 -1 -18 -10 -15 -30 12 -21 -14 10 -29 19 -9 35 -22
35 -27 0 -6 5 -8 12 -4 7 5 8 3 3 -6 -4 -7 -2 -16 5 -20 11 -7 10 -12 -3 -25
-10 -9 -17 -18 -17 -21 0 -7 25 1 33 11 5 6 6 -3 4 -20 -5 -27 -4 -28 9 -10
16 22 19 91 4 100 -5 3 -10 -2 -11 -12 0 -11 -3 -13 -6 -5 -3 7 1 20 9 29 11
14 9 15 -19 11 -18 -2 -30 -1 -27 4 3 4 -3 5 -13 2 -14 -5 -15 -4 -4 4 7 5 10
15 7 21 -4 6 -2 11 3 11 6 0 11 -7 11 -15 0 -9 9 -15 23 -14 21 0 21 1 2 9
-11 5 -15 9 -10 10 10 1 -34 29 -47 30 -4 0 -5 -9 -3 -19z"/>
<path d="M5479 583 c-7 -10 -9 -15 -5 -11 5 4 14 0 21 -9 11 -15 14 -15 36 0
21 15 19 22 -5 18 -4 -1 -14 3 -21 9 -9 7 -16 5 -26 -7z m29 -18 c-3 -3 -9 2
-12 12 -6 14 -5 15 5 6 7 -7 10 -15 7 -18z"/>
<path d="M5933 614 c4 -7 0 -14 -8 -18 -20 -7 -19 -50 1 -67 11 -9 20 -10 32
-2 27 16 25 47 -4 73 -15 14 -24 20 -21 14z"/>
<path d="M6187 595 c-22 -16 -19 -53 5 -68 22 -14 48 7 48 39 0 31 -29 47 -53
29z"/>
<path d="M6432 605 c0 -11 -2 -27 -6 -36 -8 -18 17 -49 38 -49 42 0 47 73 6
79 -14 1 -28 8 -32 14 -4 7 -7 3 -6 -8z"/>
<path d="M6694 586 c-12 -31 0 -61 25 -61 31 0 50 28 35 53 -14 22 -52 28 -60
8z"/>
<path d="M6954 587 c-13 -34 13 -97 40 -97 6 0 1 8 -12 18 l-23 18 33 -1 c32
-1 33 0 33 35 0 34 -2 36 -32 38 -21 2 -35 -3 -39 -11z"/>
</g>
</svg>
