<?xml version="1.0" standalone="no"?>
<!DOCTYPE svg PUBLIC "-//W3C//DTD SVG 20010904//EN"
 "http://www.w3.org/TR/2001/REC-SVG-20010904/DTD/svg10.dtd">
<svg version="1.0" xmlns="http://www.w3.org/2000/svg"
 width="872.000000pt" height="261.000000pt" viewBox="0 0 872.000000 261.000000"
 preserveAspectRatio="xMidYMid meet">

<g transform="translate(0.000000,261.000000) scale(0.100000,-0.100000)"
fill="#000000" stroke="none">
<path d="M995 2397 c-3 -7 -6 -46 -7 -87 l-3 -75 -56 -3 c-48 -2 -58 -6 -62
-24 -8 -31 9 -56 40 -60 32 -3 31 22 12 -251 -9 -126 -17 -183 -26 -193 -8 -8
-32 -14 -54 -14 -36 0 -39 2 -39 29 0 16 -7 34 -15 41 -12 10 -15 36 -15 117
0 136 -22 187 -87 207 -21 7 -23 4 -23 -26 0 -18 7 -42 15 -52 11 -15 15 -48
15 -127 0 -98 -2 -107 -20 -112 -16 -4 -20 -14 -20 -50 0 -25 -3 -48 -8 -51
-4 -2 -91 -16 -192 -31 -223 -32 -257 -40 -270 -66 -13 -23 -77 -491 -87 -626
l-6 -92 31 -18 c34 -19 41 -33 17 -33 -25 0 -91 -74 -110 -124 -16 -42 -16
-49 -3 -62 21 -21 39 -10 72 41 35 56 51 64 196 105 63 17 189 56 280 85 495
161 690 201 1339 275 43 5 77 14 82 22 5 7 9 77 9 155 l0 141 96 -34 c52 -19
109 -41 125 -49 l29 -16 0 -250 c0 -155 4 -258 10 -270 12 -21 323 -291 413
-358 31 -23 84 -58 118 -77 42 -25 59 -40 55 -51 -3 -8 -6 -21 -6 -29 0 -21
-26 -17 -123 15 -90 31 -167 69 -167 83 0 4 -7 8 -15 8 -21 0 -37 37 -31 68 7
33 -6 57 -27 49 -20 -7 -41 18 -33 39 9 24 -12 45 -38 38 -26 -6 -51 18 -43
40 8 21 -17 50 -36 43 -21 -8 -58 29 -50 49 8 21 -17 47 -32 34 -14 -12 -51
23 -41 39 9 14 -24 43 -42 36 -19 -7 -52 23 -45 41 8 22 -17 47 -33 33 -17
-14 -61 19 -56 43 4 21 -37 46 -48 28 -11 -17 -60 -1 -60 20 0 22 -49 34 -57
14 -6 -16 -39 -19 -48 -4 -9 15 -53 12 -62 -3 -10 -17 -51 -28 -59 -16 -10 17
-51 10 -57 -11 -3 -14 -14 -20 -31 -20 -14 0 -26 5 -26 10 0 18 -45 11 -63
-10 -18 -21 -47 -27 -47 -10 0 15 -48 12 -57 -4 -10 -17 -53 -31 -53 -17 0 16
-48 13 -57 -3 -10 -18 -63 -32 -63 -17 0 20 -42 12 -47 -9 -6 -22 -42 -27 -60
-9 -14 14 -53 2 -53 -17 0 -16 -45 -20 -55 -4 -7 11 -36 2 -50 -15 -14 -17
-55 -29 -55 -16 0 19 -39 12 -50 -9 -11 -20 -44 -27 -54 -11 -9 15 -54 0 -59
-20 -6 -21 -37 -25 -54 -8 -14 14 -53 2 -53 -17 0 -16 -45 -20 -55 -4 -9 15
-22 12 -42 -8 -25 -26 -50 -33 -63 -17 -13 16 -50 8 -50 -10 0 -19 -34 -28
-71 -20 -24 5 -35 2 -50 -14 -22 -23 -55 -28 -61 -9 -4 10 -10 10 -32 0 -20
-9 -26 -17 -21 -31 7 -24 -26 -45 -56 -36 -13 5 -25 -1 -38 -17 -17 -21 -18
-25 -4 -40 19 -21 9 -38 -23 -38 -35 0 -49 -39 -22 -61 26 -20 16 -69 -14 -69
-16 0 -19 -5 -14 -23 3 -12 6 -25 6 -29 0 -5 11 -8 25 -8 20 0 25 -5 25 -26 0
-15 -7 -32 -16 -39 -26 -18 -1 -57 31 -49 29 7 54 -28 36 -50 -16 -19 34 -52
54 -36 19 16 57 -9 49 -32 -4 -13 3 -21 21 -30 21 -10 27 -9 38 7 17 22 53 13
60 -15 6 -24 45 -27 53 -5 8 19 50 19 58 0 7 -19 52 -19 60 0 7 19 42 19 50 0
3 -8 16 -15 30 -15 13 0 26 7 30 15 3 8 16 15 30 15 13 0 26 -7 30 -15 9 -23
63 -19 69 5 7 25 22 25 47 0 23 -23 70 -27 70 -6 0 8 5 18 10 21 16 10 50 -5
50 -21 0 -9 11 -14 34 -14 25 0 35 5 39 20 7 26 33 26 47 0 13 -24 55 -27 64
-5 7 19 52 19 60 0 7 -20 66 -20 66 0 0 9 9 15 25 15 16 0 25 -6 25 -15 0 -24
61 -20 67 5 7 26 43 26 50 0 7 -25 63 -29 63 -5 0 9 9 15 25 15 16 0 25 -6 25
-15 0 -24 61 -20 67 5 7 26 39 26 53 0 6 -11 21 -20 34 -20 15 0 26 7 29 20 3
12 14 20 27 20 13 0 24 -8 27 -20 7 -28 59 -28 66 0 7 27 47 27 54 0 7 -28 59
-28 66 0 7 27 47 27 54 0 4 -14 14 -20 33 -20 19 0 29 6 33 20 7 26 37 26 44
0 8 -28 68 -28 76 0 7 28 57 28 64 0 9 -33 73 -23 73 11 0 24 35 42 69 34 20
-4 32 0 45 14 11 12 13 21 7 25 -18 11 10 58 31 53 11 -3 24 3 33 16 13 18 12
22 -1 32 -9 6 -14 22 -12 36 2 20 8 23 32 21 16 -2 46 -12 67 -22 83 -43 192
-72 301 -80 l109 -8 67 -69 c87 -90 109 -97 338 -97 95 -1 176 3 180 7 5 4 4
14 -1 21 -6 7 -30 39 -54 71 -58 76 -115 202 -136 299 -14 64 -17 112 -13 253
4 137 2 175 -9 184 -16 14 -204 -36 -237 -62 -12 -10 -28 -40 -36 -69 -8 -28
-18 -51 -23 -51 -4 0 -32 3 -61 6 -42 6 -87 0 -201 -25 -82 -17 -151 -28 -156
-23 -5 5 -27 51 -50 103 -22 52 -47 102 -55 111 -8 9 -36 65 -63 125 -26 60
-78 175 -115 256 l-68 146 -67 29 c-36 17 -114 49 -173 73 -100 41 -108 46
-113 74 -18 112 -66 550 -61 561 3 8 23 15 48 17 42 3 43 4 43 38 l0 35 -450
5 -450 5 -6 58 c-7 63 -25 90 -70 106 -22 8 -31 7 -34 -2z m210 -391 c-17
-313 -27 -561 -34 -793 l-1 -53 -86 0 -85 0 3 239 c2 132 0 237 -3 235 -15 -9
-31 58 -25 99 4 23 9 85 12 137 3 52 9 99 14 105 5 6 7 21 3 33 -3 12 -2 47 2
77 l6 55 101 0 100 0 -7 -134z m630 111 c0 -17 -16 -19 -235 -23 -129 -2 -238
-8 -242 -12 -5 -5 -27 -412 -28 -524 0 -9 7 -24 16 -32 13 -13 46 -16 202 -17
226 0 351 -11 363 -30 5 -8 9 -76 9 -151 0 -135 0 -138 -22 -142 -31 -7 -250
-36 -265 -36 -10 0 -13 30 -13 115 l0 115 120 0 c129 0 144 6 120 49 -11 21
-16 21 -263 19 l-252 -3 0 -30 0 -30 108 -3 107 -3 0 -114 0 -115 -142 0 c-79
0 -149 4 -157 9 -13 8 -12 62 3 398 9 213 19 432 23 486 l6 97 271 -2 c255 -3
271 -4 271 -21z m-1 -98 c6 -5 17 -110 20 -184 0 -22 4 -45 9 -52 4 -6 6 -26
6 -45 -1 -18 1 -63 6 -101 l8 -67 -235 2 -235 3 -2 75 c-1 41 1 143 5 225 l6
150 203 0 c112 0 206 -3 209 -6z m-916 -690 c2 -221 -1 -289 -10 -297 -14 -11
-514 -172 -536 -172 -10 0 -12 21 -10 93 l3 92 245 5 245 5 0 200 0 200 -314
3 -313 2 6 32 c3 18 11 35 17 38 5 4 110 21 232 39 303 44 346 49 392 47 l40
-1 3 -286z m-620 85 l22 -6 0 -274 0 -274 -28 0 c-30 0 -119 27 -126 38 -5 10
51 498 59 511 7 12 38 14 73 5z m380 -4 l132 0 0 -160 0 -160 -219 0 -218 0
-7 38 c-8 53 -8 277 2 286 4 5 45 5 92 2 47 -3 145 -6 218 -6z m1742 -387 c51
-109 71 -160 66 -176 -3 -15 7 -53 29 -107 20 -45 34 -84 32 -86 -1 -2 -51 39
-110 92 l-107 95 0 176 c0 99 4 173 9 168 4 -6 41 -79 81 -162z m-532 -118
c49 -21 81 -52 103 -100 42 -91 6 -202 -80 -248 -81 -45 -188 -31 -243 30 -46
50 -61 152 -34 218 40 95 156 140 254 100z m-332 -77 c-27 -90 -18 -175 28
-251 l34 -55 -82 -6 c-98 -6 -742 -26 -844 -26 -60 0 -74 3 -79 18 -3 9 -23
41 -45 70 -26 35 -35 54 -26 56 25 8 183 36 201 36 13 0 17 -9 17 -39 0 -92
115 -151 198 -101 64 39 88 113 57 174 -8 15 -15 32 -15 36 0 4 37 15 83 24
495 98 482 96 473 64z m1779 -155 c-2 -105 1 -168 12 -218 17 -83 73 -221 114
-286 16 -25 29 -49 29 -52 0 -13 -177 -7 -224 7 -172 52 -193 141 -112 465 25
101 47 185 49 186 3 3 121 43 129 44 3 1 5 -65 3 -146z m-2376 11 c16 -36 14
-58 -10 -88 -28 -35 -80 -36 -114 -1 -30 29 -32 64 -5 98 35 44 107 39 129 -9z
m1226 -126 c-87 -13 -161 -74 -180 -150 l-7 -27 -661 -3 c-364 -2 -672 -1
-684 1 -17 2 -23 10 -23 31 l0 27 158 6 c700 29 874 31 996 11 58 -10 156 21
207 64 46 39 89 120 89 167 0 29 2 28 75 -45 l76 -75 -46 -7z m779 47 c6 -8
31 -19 56 -23 25 -4 45 -12 45 -17 -2 -48 -31 -158 -44 -164 -21 -11 -130 3
-162 19 -63 34 -127 84 -138 107 -6 14 -10 27 -9 28 4 4 219 63 232 64 5 1 14
-6 20 -14z m-2531 -39 c71 -29 122 -126 103 -199 -18 -73 -99 -137 -174 -137
-185 -1 -247 244 -82 328 50 25 106 28 153 8z m1857 -103 c61 -36 87 -121 56
-182 -10 -18 -21 -29 -28 -25 -6 4 -8 3 -5 -3 20 -33 -100 -63 -164 -41 -28
10 -44 33 -34 49 4 5 0 6 -8 3 -9 -3 -18 8 -26 36 -37 123 98 228 209 163z
m-1482 -160 c12 -10 24 -30 28 -45 5 -22 0 -33 -24 -58 -37 -36 -65 -38 -97
-5 -30 30 -32 64 -4 99 24 31 67 35 97 9z m256 2 c10 -8 15 -19 10 -26 -4 -8
-3 -10 4 -5 24 15 13 -54 -13 -79 -29 -30 -54 -31 -88 -5 -70 55 15 169 87
115z m256 -5 c30 -30 27 -83 -6 -109 -28 -22 -54 -27 -54 -11 0 5 -6 7 -13 4
-7 -2 -22 5 -32 16 -15 17 -16 23 -6 29 9 6 10 11 2 15 -31 20 14 76 61 76 15
0 37 -9 48 -20z m267 -2 c26 -24 30 -65 10 -92 -14 -19 -68 -30 -98 -21 -20 7
-45 68 -30 73 5 2 8 9 5 17 -7 17 34 45 65 45 14 0 35 -10 48 -22z m277 0 c52
-75 -51 -161 -115 -97 -25 25 -21 86 7 106 30 22 90 16 108 -9z"/>
<path d="M477 1373 c-4 -3 -7 -55 -7 -115 0 -90 3 -110 16 -115 9 -3 20 0 25
8 10 16 12 189 3 213 -6 16 -26 21 -37 9z"/>
<path d="M1740 862 c-54 -29 -80 -75 -80 -140 0 -70 26 -113 86 -142 78 -38
165 -5 205 76 49 102 -14 211 -128 221 -35 3 -58 -1 -83 -15z m141 -71 c40
-40 40 -89 0 -133 -73 -82 -203 1 -161 103 26 63 112 79 161 30z"/>
<path d="M1771 751 c-17 -31 -13 -49 14 -67 31 -20 63 -10 71 23 9 35 -7 57
-44 61 -22 2 -34 -2 -41 -17z"/>
<path d="M1312 717 c-40 -42 -25 -107 28 -126 35 -12 56 -7 88 22 28 26 28 66
1 101 -27 35 -86 36 -117 3z"/>
<path d="M866 677 c-38 -28 2 -96 42 -71 23 15 22 54 -4 70 -17 12 -23 12 -38
1z"/>
<path d="M306 464 c-53 -54 -18 -144 56 -144 40 1 64 17 78 54 13 36 3 72 -27
96 -36 28 -75 25 -107 -6z"/>
<path d="M2129 433 c-12 -14 -12 -16 0 -8 11 6 13 4 7 -10 -6 -16 -4 -16 10
-4 10 8 12 15 5 17 -6 2 -9 8 -5 13 9 15 -3 10 -17 -8z"/>
<path d="M2161 384 c-24 -31 -26 -49 -8 -88 11 -26 15 -27 62 -22 71 7 75 8
69 18 -3 4 -2 14 3 21 12 19 10 40 -6 60 -12 14 -12 17 0 18 8 1 18 1 22 0 5
-1 6 3 2 9 -4 7 -12 7 -25 0 -13 -7 -21 -7 -25 0 -3 5 -21 10 -40 10 -24 0
-39 -7 -54 -26z"/>
<path d="M734 265 c-9 -36 2 -55 30 -55 34 0 50 30 30 58 -21 30 -52 28 -60
-3z"/>
<path d="M998 279 c-33 -19 -15 -69 24 -69 25 0 38 29 25 57 -11 25 -23 28
-49 12z"/>
<path d="M1246 271 c-23 -25 -6 -64 26 -59 29 4 46 33 32 56 -16 24 -37 26
-58 3z"/>
<path d="M1512 281 c-8 -5 -12 -21 -10 -37 2 -23 9 -30 29 -32 15 -2 32 5 42
16 15 16 15 20 1 40 -16 23 -39 28 -62 13z"/>
<path d="M1782 280 c-26 -25 -16 -63 18 -68 37 -6 55 45 26 74 -18 18 -18 18
-44 -6z"/>
<path d="M7665 2396 c-44 -19 -57 -40 -64 -104 l-6 -57 -450 -5 -450 -5 0 -35
c0 -34 1 -35 43 -38 25 -2 45 -9 48 -17 5 -11 -43 -449 -61 -561 -5 -28 -13
-33 -113 -74 -59 -24 -137 -56 -173 -73 l-67 -29 -68 -146 c-37 -81 -89 -196
-115 -256 -27 -60 -55 -116 -63 -125 -8 -9 -33 -59 -55 -111 -23 -52 -45 -98
-50 -103 -5 -5 -74 6 -156 23 -114 25 -159 31 -201 25 -29 -3 -57 -6 -61 -6
-5 0 -15 23 -23 51 -8 29 -24 59 -36 69 -33 26 -221 76 -237 62 -11 -9 -13
-47 -9 -184 4 -141 1 -189 -13 -253 -21 -97 -78 -223 -136 -299 -24 -32 -48
-64 -54 -71 -5 -7 -6 -17 -1 -21 4 -4 85 -8 180 -7 229 0 251 7 338 97 l67 69
109 8 c109 8 218 37 301 80 21 10 51 20 67 22 24 2 30 -1 32 -21 2 -14 -3 -30
-12 -36 -13 -10 -14 -14 -1 -32 9 -13 22 -19 33 -16 21 5 49 -42 31 -53 -6 -4
-4 -13 7 -25 13 -14 25 -18 45 -14 34 8 69 -10 69 -34 0 -34 64 -44 73 -11 7
28 57 28 64 0 8 -28 68 -28 76 0 7 26 37 26 44 0 7 -28 59 -28 66 0 3 12 14
20 27 20 13 0 24 -8 27 -20 7 -28 59 -28 66 0 7 27 47 27 54 0 7 -28 59 -28
66 0 7 27 47 27 54 0 7 -27 49 -27 63 0 14 26 46 26 53 0 6 -25 67 -29 67 -5
0 9 9 15 25 15 16 0 25 -6 25 -15 0 -24 56 -20 63 5 7 26 43 26 50 0 6 -25 67
-29 67 -5 0 9 9 15 25 15 16 0 25 -6 25 -15 0 -20 59 -20 66 0 8 19 53 19 60
0 9 -22 51 -19 64 5 14 26 40 26 47 0 4 -15 14 -20 39 -20 23 0 34 5 34 14 0
16 34 31 50 21 5 -3 10 -13 10 -21 0 -21 47 -17 70 6 25 25 40 25 47 0 6 -24
60 -28 69 -5 4 8 17 15 30 15 14 0 27 -7 30 -15 8 -19 53 -19 60 0 8 19 43 19
50 0 8 -19 53 -19 60 0 4 8 16 15 29 15 13 0 25 -7 29 -15 8 -22 47 -19 53 5
7 28 43 37 60 15 11 -16 17 -17 38 -7 18 9 25 17 21 30 -8 23 30 48 49 32 20
-16 70 17 54 36 -18 22 7 57 36 50 32 -8 57 31 31 49 -9 7 -16 24 -16 39 0 21
5 26 24 26 16 0 26 7 30 23 9 33 8 37 -13 37 -29 0 -38 50 -13 69 27 22 13 61
-22 61 -32 0 -42 17 -23 38 14 15 13 19 -4 40 -13 16 -25 22 -38 17 -30 -9
-63 12 -56 36 5 14 -1 22 -21 31 -22 10 -28 10 -32 0 -6 -19 -39 -14 -61 9
-15 16 -26 19 -50 14 -37 -8 -71 1 -71 20 0 18 -37 26 -50 10 -13 -16 -38 -9
-63 17 -20 20 -33 23 -42 8 -10 -16 -55 -12 -55 4 0 19 -39 31 -53 17 -17 -17
-48 -13 -54 8 -5 20 -50 35 -59 20 -10 -16 -43 -9 -54 11 -11 21 -50 28 -50 9
0 -13 -41 -1 -55 16 -14 17 -43 26 -50 15 -10 -16 -55 -12 -55 4 0 19 -39 31
-53 17 -18 -18 -54 -13 -60 9 -5 21 -47 29 -47 9 0 -15 -53 -1 -63 17 -9 16
-57 19 -57 3 0 -14 -43 0 -53 17 -9 16 -57 19 -57 4 0 -17 -29 -11 -47 10 -18
21 -63 28 -63 10 0 -5 -12 -10 -26 -10 -17 0 -28 6 -31 20 -6 21 -47 28 -57
11 -8 -12 -49 -1 -59 16 -9 15 -53 18 -62 3 -9 -15 -42 -12 -48 4 -8 20 -57 8
-57 -14 0 -21 -49 -37 -60 -20 -11 18 -52 -7 -48 -28 5 -24 -39 -57 -56 -43
-16 14 -41 -11 -33 -33 7 -18 -26 -48 -45 -41 -18 7 -51 -22 -42 -36 10 -16
-27 -51 -41 -39 -15 13 -40 -13 -32 -34 8 -20 -29 -57 -50 -49 -19 7 -44 -22
-36 -43 8 -22 -17 -46 -43 -40 -26 7 -47 -14 -38 -38 8 -21 -13 -46 -33 -39
-21 8 -34 -16 -27 -49 6 -31 -10 -68 -31 -68 -8 0 -15 -4 -15 -8 0 -14 -77
-52 -167 -83 -97 -32 -123 -36 -123 -15 0 8 -3 21 -6 29 -4 11 13 26 55 51 34
19 87 54 118 77 90 67 401 337 413 358 6 12 10 115 10 270 l0 250 29 16 c16 8
73 30 125 49 l96 34 0 -141 c0 -78 4 -148 9 -155 5 -8 39 -17 82 -22 649 -74
844 -114 1339 -275 91 -29 217 -68 280 -85 145 -41 161 -49 196 -105 33 -51
51 -62 72 -41 13 13 13 20 -3 62 -19 50 -85 124 -110 124 -24 0 -17 14 17 33
l31 18 -6 92 c-10 135 -74 603 -87 626 -13 26 -47 34 -270 66 -101 15 -188 29
-192 31 -5 3 -8 26 -8 51 0 36 -4 46 -20 50 -18 5 -20 14 -20 112 0 79 4 112
15 127 8 10 15 34 15 52 0 30 -2 33 -22 26 -66 -20 -88 -71 -88 -207 0 -81 -3
-107 -15 -117 -8 -7 -15 -25 -15 -41 0 -27 -3 -29 -39 -29 -22 0 -46 6 -54 14
-9 10 -17 67 -26 193 -19 273 -20 248 12 251 31 4 48 29 40 60 -4 18 -14 22
-62 24 l-56 3 -3 80 c-2 44 -6 83 -10 87 -4 3 -21 1 -37 -6z m-252 -353 c4
-54 14 -273 23 -486 15 -336 16 -390 3 -398 -8 -5 -78 -9 -156 -9 l-143 0 0
115 0 114 108 3 107 3 0 30 0 30 -252 3 c-247 2 -252 2 -263 -19 -24 -43 -9
-49 120 -49 l120 0 0 -115 c0 -85 -3 -115 -12 -115 -16 0 -235 29 -265 36 -23
4 -23 7 -23 142 0 75 4 143 9 151 12 19 137 30 363 30 156 1 189 4 202 17 9 8
16 23 16 32 -1 112 -23 519 -28 524 -4 4 -113 10 -241 12 -128 2 -235 7 -238
10 -3 3 -3 12 0 21 6 13 42 15 275 15 l269 0 6 -97z m282 42 c4 -30 5 -65 2
-77 -4 -12 -2 -27 3 -33 5 -6 11 -53 14 -105 3 -52 8 -114 12 -137 6 -41 -10
-108 -25 -99 -3 2 -5 -103 -3 -235 l3 -239 -85 0 -86 0 -1 53 c-7 232 -17 480
-34 793 l-7 134 100 0 101 0 6 -55z m-411 -210 c4 -82 6 -184 5 -225 l-2 -75
-235 -3 -235 -2 8 67 c5 38 7 83 6 101 0 19 2 39 6 45 5 7 9 30 9 52 3 66 14
177 19 185 3 4 96 7 209 6 l204 -1 6 -150z m896 -301 c135 -19 252 -37 261
-40 16 -4 29 -32 29 -61 0 -10 -72 -13 -312 -15 l-313 -3 0 -200 0 -200 245
-5 245 -5 3 -92 c2 -72 0 -93 -10 -93 -22 0 -522 161 -535 172 -10 8 -13 79
-13 293 0 155 3 285 8 289 10 11 105 1 392 -40z m158 -269 c2 -60 0 -134 -3
-162 l-6 -53 -220 0 -219 0 0 160 0 159 158 3 c86 2 186 3 222 3 l65 0 3 -110z
m137 104 c8 -13 64 -501 59 -511 -7 -11 -96 -38 -126 -38 l-28 0 0 274 c0 253
1 275 18 279 33 9 71 7 77 -4z m-2105 -394 l0 -174 -107 -95 c-59 -53 -108
-94 -110 -92 -2 1 11 36 28 77 17 41 33 94 34 119 2 32 23 87 74 193 40 81 74
147 77 147 2 0 4 -79 4 -175z m629 -129 c92 -64 109 -216 33 -299 -55 -61
-162 -75 -243 -30 -107 58 -131 210 -46 302 62 67 180 79 256 27z m353 -71
c315 -60 348 -67 348 -75 0 -4 -7 -21 -15 -36 -31 -61 -7 -135 57 -174 83 -50
198 9 198 101 0 30 4 39 18 39 17 0 175 -28 200 -36 9 -2 0 -21 -26 -56 -22
-29 -42 -61 -45 -70 -5 -15 -19 -18 -79 -18 -102 0 -746 20 -844 26 l-82 6 34
55 c46 76 55 161 28 251 -8 29 -11 29 208 -13z m-1912 -20 c30 -10 56 -19 57
-20 2 -1 24 -85 49 -186 81 -324 60 -413 -112 -465 -47 -14 -224 -20 -224 -7
0 3 13 27 29 52 41 65 97 203 114 286 11 50 14 113 12 218 -3 111 -1 147 8
144 7 -2 37 -12 67 -22z m2430 -103 c27 -33 25 -68 -5 -97 -34 -35 -86 -34
-114 1 -12 15 -21 35 -21 45 0 78 93 112 140 51z m-1221 -100 c45 -87 173
-154 267 -138 122 20 296 18 997 -11 l157 -6 0 -27 c0 -21 -6 -29 -22 -31 -13
-2 -321 -3 -685 -1 l-661 3 -7 27 c-18 77 -114 152 -194 152 l-35 0 74 75 75
76 7 -40 c4 -21 16 -57 27 -79z m-780 -3 c64 -17 117 -32 119 -34 1 -1 -3 -14
-9 -28 -11 -23 -75 -73 -138 -107 -32 -16 -141 -30 -162 -19 -13 6 -42 116
-44 164 0 5 20 13 45 17 25 4 49 14 55 23 5 8 12 15 14 15 2 0 56 -14 120 -31z
m2551 -31 c165 -84 103 -329 -82 -328 -75 0 -156 64 -174 137 -12 45 6 112 39
150 58 66 138 81 217 41z m-1892 -84 c75 -29 112 -102 91 -174 -8 -28 -17 -39
-26 -36 -8 3 -12 2 -8 -3 10 -16 -6 -39 -34 -49 -64 -22 -184 8 -164 41 3 6 1
7 -5 3 -15 -9 -42 45 -42 83 0 75 62 140 142 150 4 1 25 -6 46 -15z m416 -167
c28 -20 32 -81 7 -106 -64 -64 -167 23 -115 97 18 25 78 31 108 9z m264 -3
c13 -9 21 -22 18 -29 -3 -8 0 -15 5 -17 15 -5 -10 -66 -30 -73 -30 -9 -84 2
-98 21 -48 65 38 145 105 98z m270 -4 c24 -23 28 -45 11 -56 -8 -4 -7 -9 2
-15 10 -6 9 -12 -6 -29 -10 -11 -25 -18 -32 -16 -7 3 -13 1 -13 -4 0 -16 -26
-11 -54 11 -19 15 -26 30 -26 55 0 65 71 98 118 54z m249 -2 c30 -33 28 -83
-4 -108 -34 -26 -59 -25 -88 5 -26 25 -37 94 -13 79 7 -5 8 -3 4 5 -11 16 22
40 55 41 14 0 35 -10 46 -22z m262 -4 c28 -35 26 -69 -4 -99 -32 -33 -60 -31
-97 5 -24 25 -29 36 -24 58 15 62 88 83 125 36z"/>
<path d="M8186 1365 c-9 -25 -7 -198 3 -214 5 -8 16 -11 25 -8 14 6 16 23 14
119 -3 95 -6 113 -19 116 -9 2 -19 -4 -23 -13z"/>
<path d="M6825 866 c-55 -25 -95 -85 -95 -143 0 -42 38 -110 73 -132 54 -33
100 -36 151 -11 60 29 86 72 86 142 0 117 -110 190 -215 144z m114 -61 c87
-44 49 -180 -51 -180 -33 0 -45 6 -69 33 -77 87 16 201 120 147z"/>
<path d="M6852 758 c-17 -17 -15 -53 4 -72 20 -21 37 -20 65 3 20 16 22 23 14
47 -8 22 -18 30 -40 32 -17 2 -36 -3 -43 -10z"/>
<path d="M7271 714 c-27 -35 -27 -75 2 -101 31 -29 52 -34 87 -22 35 13 50 35
50 77 0 67 -97 99 -139 46z"/>
<path d="M7791 674 c-26 -18 -25 -51 2 -68 23 -15 51 3 55 37 4 35 -26 52 -57
31z"/>
<path d="M8287 470 c-30 -24 -40 -60 -27 -96 14 -37 38 -53 78 -54 74 0 109
90 56 144 -32 31 -71 34 -107 6z"/>
<path d="M6554 441 c4 -5 1 -11 -5 -13 -7 -2 -5 -9 5 -17 14 -12 16 -12 10 4
-6 14 -4 16 7 10 12 -8 12 -6 0 8 -14 18 -26 23 -17 8z"/>
<path d="M6395 400 c-4 -6 -3 -10 2 -9 4 1 14 1 22 0 12 -1 12 -4 0 -18 -16
-20 -18 -41 -6 -60 5 -7 6 -17 3 -21 -6 -10 -2 -11 69 -18 47 -5 51 -4 63 22
17 39 15 57 -9 88 -15 19 -30 26 -54 26 -19 0 -37 -5 -40 -10 -4 -7 -12 -7
-25 0 -13 7 -21 7 -25 0z"/>
<path d="M6873 285 c-27 -30 -9 -79 27 -73 34 5 44 43 18 68 -25 23 -29 24
-45 5z"/>
<path d="M7126 268 c-14 -20 -14 -24 1 -40 10 -11 27 -18 42 -16 20 2 27 9 29
32 6 47 -44 64 -72 24z"/>
<path d="M7402 278 c-25 -25 -6 -68 30 -68 9 0 22 9 28 21 9 16 8 25 -6 40
-20 22 -35 24 -52 7z"/>
<path d="M7653 267 c-13 -28 0 -57 25 -57 41 0 57 51 23 70 -29 15 -37 13 -48
-13z"/>
<path d="M7906 268 c-20 -28 -4 -58 30 -58 28 0 39 19 30 55 -8 31 -39 33 -60
3z"/>
<path d="M4215 1451 c-28 -6 -30 -10 -35 -59 l-5 -54 -54 -18 c-29 -11 -60
-25 -67 -31 -12 -10 -22 -5 -52 24 -21 21 -44 37 -51 37 -20 0 -201 -186 -201
-206 0 -10 14 -33 31 -50 l32 -33 -31 -73 -30 -73 -54 -5 -53 -5 -9 -72 c-5
-43 -5 -103 0 -145 l9 -73 53 -3 c39 -2 55 -8 59 -20 3 -9 17 -43 31 -75 l25
-58 -31 -32 c-18 -18 -32 -40 -32 -48 0 -31 164 -198 203 -207 7 -1 27 13 45
31 l33 34 75 -30 74 -31 0 -52 0 -51 38 -7 c48 -8 186 -8 235 0 l37 7 0 51 0
52 74 31 75 30 33 -34 c18 -18 38 -32 45 -31 39 9 203 176 203 207 0 8 -14 30
-32 48 l-31 32 25 58 c14 32 28 66 31 75 4 12 20 18 59 20 l53 3 9 72 c5 43 5
103 0 145 l-9 73 -53 5 -54 5 -30 73 -31 73 32 33 c17 17 31 40 31 50 0 20
-181 206 -201 206 -7 0 -29 -16 -49 -35 l-36 -35 -44 21 c-25 12 -56 25 -70
29 -22 5 -26 13 -30 61 -5 50 -7 54 -35 60 -16 4 -70 7 -120 7 -49 0 -103 -3
-120 -7z m214 -27 c30 -6 31 -8 31 -59 l0 -52 43 -13 c23 -7 64 -23 91 -37
l49 -25 36 36 37 36 45 -34 c45 -36 119 -118 119 -134 0 -4 -13 -21 -30 -37
-33 -32 -37 -50 -15 -79 8 -10 24 -48 35 -82 l22 -64 52 0 53 0 6 -60 c3 -33
3 -87 0 -120 l-6 -60 -53 0 c-50 0 -54 -2 -60 -28 -4 -15 -20 -58 -37 -95
l-30 -68 31 -32 c18 -18 32 -38 32 -44 0 -15 -73 -96 -121 -134 l-40 -32 -38
37 -37 36 -60 -30 c-32 -16 -74 -33 -91 -36 -32 -6 -33 -7 -33 -59 0 -63 -4
-65 -125 -65 -121 0 -125 2 -125 65 0 52 -1 53 -32 59 -18 3 -60 20 -92 36
l-60 30 -37 -36 -38 -37 -40 32 c-48 38 -121 119 -121 134 0 6 14 26 32 44
l31 32 -30 68 c-17 37 -33 80 -37 96 -6 25 -10 27 -60 27 l-53 0 -6 60 c-3 33
-3 87 0 120 l6 60 53 0 c52 0 53 0 64 38 7 20 24 63 38 95 l25 58 -31 32 c-18
18 -32 36 -32 41 0 14 75 97 119 132 l45 34 37 -36 36 -36 49 25 c27 14 68 30
92 37 l42 13 0 53 c0 47 3 53 23 57 36 7 162 8 196 1z"/>
<path d="M4247 1110 c-96 -24 -193 -104 -237 -195 -35 -71 -40 -207 -11 -285
30 -79 98 -152 179 -192 60 -30 75 -33 157 -33 82 0 97 3 157 33 81 40 149
113 179 192 29 78 24 214 -11 285 -32 67 -108 141 -175 171 -62 29 -174 40
-238 24z m155 -31 c189 -39 302 -237 243 -424 -24 -74 -96 -154 -173 -192 -48
-23 -70 -28 -137 -28 -102 0 -171 31 -243 109 -63 70 -86 139 -80 240 6 87 38
155 101 213 54 50 78 63 142 79 65 16 83 16 147 3z"/>
</g>
</svg>
